<?xml version="1.0" encoding="UTF-8" standalone="no"?>
<!DOCTYPE svg PUBLIC "-//W3C//DTD SVG 20010904//EN"
              "http://www.w3.org/TR/2001/REC-SVG-20010904/DTD/svg10.dtd">

<svg xmlns="http://www.w3.org/2000/svg"
     width="0.430556in" height="0.347222in"
     viewBox="0 0 31 25">
  <path id="Selection"
        fill="none" stroke="black" stroke-width="1"
        d="M 0.00,0.00
           C 1.27,6.69 5.26,11.30 8.81,17.00
             9.96,18.84 12.32,22.97 14.28,23.83
             17.32,25.17 19.60,21.06 20.95,19.00
             24.63,13.35 29.76,6.51 31.00,0.00
             31.00,0.00 0.00,0.00 0.00,0.00 Z
           M 12.00,3.00
           C 12.00,3.00 9.00,9.00 9.00,9.00
             9.00,9.00 5.00,3.00 5.00,3.00
             5.00,3.00 12.00,3.00 12.00,3.00 Z
           M 26.00,3.00
           C 26.00,3.00 22.00,9.00 22.00,9.00
             22.00,9.00 19.00,3.00 19.00,3.00
             19.00,3.00 26.00,3.00 26.00,3.00 Z
           M 15.53,4.02
           C 21.11,12.67 21.11,12.53 15.51,20.89
             10.04,12.44 10.02,12.42 15.53,4.02 Z" />
</svg>
