<?xml version="1.0" encoding="UTF-8" standalone="no"?>
<!DOCTYPE svg PUBLIC "-//W3C//DTD SVG 20010904//EN"
              "http://www.w3.org/TR/2001/REC-SVG-20010904/DTD/svg10.dtd">

<svg xmlns="http://www.w3.org/2000/svg"
     width="0.566667in" height="0.511111in"
     viewBox="0 0 51 46">
  <path id="Selection"
        fill="none" stroke="black" stroke-width="1"
        d="M 17.00,0.00
           C 17.00,0.00 17.00,4.00 17.00,4.00
             17.00,4.00 0.00,4.00 0.00,4.00
             0.00,4.00 0.00,46.00 0.00,46.00
             0.00,46.00 51.00,46.00 51.00,46.00
             51.00,46.00 51.00,4.00 51.00,4.00
             51.00,4.00 34.00,4.00 34.00,4.00
             34.00,4.00 34.00,0.00 34.00,0.00
             34.00,0.00 17.00,0.00 17.00,0.00 Z
           M 32.00,2.00
           C 32.00,2.00 32.00,7.00 32.00,7.00
             32.00,7.00 49.00,7.00 49.00,7.00
             49.00,7.00 49.00,44.00 49.00,44.00
             49.00,44.00 2.00,44.00 2.00,44.00
             2.00,44.00 2.00,7.00 2.00,7.00
             2.00,7.00 19.00,7.00 19.00,7.00
             19.00,7.00 19.00,2.00 19.00,2.00
             19.00,2.00 32.00,2.00 32.00,2.00 Z
           M 4.96,24.35
           C 4.96,24.35 4.97,9.92 4.97,9.92
             4.97,9.92 46.13,10.04 46.13,10.04
             46.13,10.04 46.04,24.09 46.04,24.09
             46.04,24.09 33.22,24.00 33.22,24.00
             33.22,24.00 33.22,20.09 33.22,20.09
             33.22,20.09 18.00,19.96 18.00,19.96
             18.00,19.96 18.00,24.17 18.00,24.17
             18.00,24.17 4.91,24.30 4.91,24.30M 33.17,27.00
           C 33.17,27.00 45.96,27.09 45.96,27.09
             45.96,27.09 45.91,40.87 45.91,40.87
             45.91,40.87 4.96,41.04 4.96,41.04
             4.96,41.04 4.83,27.09 4.83,27.09
             4.83,27.09 16.96,27.04 16.96,27.04
             16.96,27.04 16.96,30.96 16.96,30.96
             16.96,30.96 33.09,30.96 33.09,30.96
             33.09,30.96 33.17,27.00 33.17,27.00" />
</svg>
