<?xml version="1.0" encoding="UTF-8" standalone="no"?>
<!DOCTYPE svg PUBLIC "-//W3C//DTD SVG 20010904//EN"
              "http://www.w3.org/TR/2001/REC-SVG-20010904/DTD/svg10.dtd">

<svg xmlns="http://www.w3.org/2000/svg"
     width="0.611111in" height="0.569444in"
     viewBox="0 0 44 41">
  <path id="Selection"
        fill="none" stroke="black" stroke-width="1"
        d="M 22.06,-0.06
           C 22.06,-0.06 17.00,15.00 17.00,15.00
             17.00,15.00 1.00,15.00 1.00,15.00
             4.38,19.29 7.98,21.87 13.00,24.00
             13.00,24.00 9.00,40.00 9.00,40.00
             9.00,40.00 22.00,33.02 22.00,33.02
             22.00,33.02 35.00,40.00 35.00,40.00
             35.00,40.00 31.00,24.00 31.00,24.00
             36.02,21.87 39.62,19.29 43.00,15.00
             43.00,15.00 27.00,15.00 27.00,15.00
             26.28,10.36 23.31,3.75 22.06,-0.06 Z
           M 22.00,8.00
           C 22.00,8.00 25.00,17.00 25.00,17.00
             25.00,17.00 37.00,17.00 37.00,17.00
             37.00,17.00 28.19,24.06 28.19,24.06
             28.19,24.06 31.00,34.00 31.00,34.00
             31.00,34.00 22.06,28.88 22.06,28.88
             22.06,28.88 13.00,34.00 13.00,34.00
             14.11,29.11 15.38,24.06 15.38,24.06
             15.38,24.06 11.71,20.32 6.88,17.00
             6.88,17.00 19.00,17.00 19.00,17.00
             19.00,17.00 22.00,8.00 22.00,8.00 Z" />
</svg>
