<?xml version="1.0" encoding="UTF-8" standalone="no"?>
<!DOCTYPE svg PUBLIC "-//W3C//DTD SVG 20010904//EN"
              "http://www.w3.org/TR/2001/REC-SVG-20010904/DTD/svg10.dtd">

<svg xmlns="http://www.w3.org/2000/svg"
     width="0.555556in" height="0.555556in"
     viewBox="0 0 40 40">
  <path id="Selection"
        fill="none" stroke="black" stroke-width="1"
        d="M 15.00,3.64
           C 11.50,4.96 9.04,6.06 6.64,9.10
             -3.74,22.27 8.61,41.10 25.00,36.36
             37.78,32.67 40.50,16.76 32.61,8.21
             27.89,3.09 21.46,2.34 15.00,3.64 Z
           M 22.00,7.00
           C 22.00,7.00 22.00,24.00 22.00,24.00
             22.00,24.00 10.00,24.00 10.00,24.00
             10.00,24.00 10.00,21.00 10.00,21.00
             10.00,21.00 20.00,21.00 20.00,21.00
             20.00,21.00 20.00,7.00 20.00,7.00
             20.00,7.00 22.00,7.00 22.00,7.00 Z" />
</svg>
